<svg width="994" height="128" viewBox="0 0 994 128" fill="none" xmlns="http://www.w3.org/2000/svg">
<g filter="url(#filter0_d_83_3067)">
<rect x="32" y="16" width="930" height="64" rx="32" fill="#2D0A24"/>
<path d="M74.5618 54V42.3636H79.0163C79.8572 42.3636 80.5561 42.4962 81.1129 42.7614C81.6735 43.0227 82.0921 43.3807 82.3686 43.8352C82.6489 44.2898 82.7891 44.8049 82.7891 45.3807C82.7891 45.8542 82.6982 46.2595 82.5163 46.5966C82.3345 46.9299 82.0902 47.2008 81.7834 47.4091C81.4766 47.6174 81.1338 47.767 80.755 47.858V47.9716C81.1679 47.9943 81.5637 48.1212 81.9425 48.3523C82.325 48.5795 82.6375 48.9015 82.88 49.3182C83.1224 49.7348 83.2436 50.2386 83.2436 50.8295C83.2436 51.4318 83.0978 51.9735 82.8061 52.4545C82.5144 52.9318 82.075 53.3087 81.4879 53.5852C80.9008 53.8617 80.1622 54 79.272 54H74.5618ZM76.6697 52.2386H78.9368C79.7019 52.2386 80.2531 52.0928 80.5902 51.8011C80.9311 51.5057 81.1016 51.1269 81.1016 50.6648C81.1016 50.3201 81.0163 50.0095 80.8459 49.733C80.6754 49.4527 80.433 49.233 80.1186 49.0739C79.8042 48.911 79.4292 48.8295 78.9936 48.8295H76.6697V52.2386ZM76.6697 47.3125H78.755C79.1186 47.3125 79.4463 47.2462 79.7379 47.1136C80.0296 46.9773 80.2588 46.786 80.4254 46.5398C80.5959 46.2898 80.6811 45.9943 80.6811 45.6534C80.6811 45.2027 80.522 44.8314 80.2038 44.5398C79.8894 44.2481 79.4216 44.1023 78.8004 44.1023H76.6697V47.3125ZM88.8501 54.1705C87.9751 54.1705 87.2195 53.9886 86.5831 53.625C85.9505 53.2576 85.4638 52.7386 85.1229 52.0682C84.782 51.3939 84.6115 50.6004 84.6115 49.6875C84.6115 48.7898 84.782 48.0019 85.1229 47.3239C85.4676 46.642 85.9486 46.1117 86.5661 45.733C87.1835 45.3504 87.9089 45.1591 88.7422 45.1591C89.2801 45.1591 89.7876 45.2462 90.2649 45.4205C90.746 45.5909 91.1702 45.8561 91.5376 46.2159C91.9089 46.5758 92.2005 47.0341 92.4126 47.5909C92.6248 48.1439 92.7308 48.803 92.7308 49.5682V50.1989H85.5774V48.8125H90.7592C90.7554 48.4186 90.6702 48.0682 90.5036 47.7614C90.3369 47.4508 90.1039 47.2064 89.8047 47.0284C89.5092 46.8504 89.1645 46.7614 88.7706 46.7614C88.3501 46.7614 87.9808 46.8636 87.6626 47.0682C87.3445 47.2689 87.0964 47.5341 86.9183 47.8636C86.7441 48.1894 86.6551 48.5473 86.6513 48.9375V50.1477C86.6513 50.6553 86.7441 51.0909 86.9297 51.4545C87.1153 51.8144 87.3748 52.0909 87.7081 52.2841C88.0414 52.4735 88.4316 52.5682 88.8786 52.5682C89.1778 52.5682 89.4486 52.5265 89.6911 52.4432C89.9335 52.3561 90.1437 52.2292 90.3217 52.0625C90.4998 51.8958 90.6342 51.6894 90.7251 51.4432L92.6456 51.6591C92.5244 52.1667 92.2933 52.6098 91.9524 52.9886C91.6153 53.3636 91.1835 53.6553 90.657 53.8636C90.1304 54.0682 89.5282 54.1705 88.8501 54.1705ZM96.5277 48.8864V54H94.4709V45.2727H96.4368V46.7557H96.5391C96.7398 46.267 97.0599 45.8788 97.4993 45.5909C97.9425 45.303 98.4898 45.1591 99.1413 45.1591C99.7436 45.1591 100.268 45.2879 100.715 45.5455C101.166 45.803 101.514 46.1761 101.761 46.6648C102.011 47.1534 102.134 47.7462 102.13 48.4432V54H100.073V48.7614C100.073 48.178 99.9216 47.7216 99.6186 47.392C99.3194 47.0625 98.9046 46.8977 98.3743 46.8977C98.0144 46.8977 97.6944 46.9773 97.4141 47.1364C97.1375 47.2917 96.9197 47.517 96.7607 47.8125C96.6054 48.108 96.5277 48.4659 96.5277 48.8864ZM108.085 54.1705C107.21 54.1705 106.454 53.9886 105.817 53.625C105.185 53.2576 104.698 52.7386 104.357 52.0682C104.016 51.3939 103.846 50.6004 103.846 49.6875C103.846 48.7898 104.016 48.0019 104.357 47.3239C104.702 46.642 105.183 46.1117 105.8 45.733C106.418 45.3504 107.143 45.1591 107.977 45.1591C108.514 45.1591 109.022 45.2462 109.499 45.4205C109.98 45.5909 110.405 45.8561 110.772 46.2159C111.143 46.5758 111.435 47.0341 111.647 47.5909C111.859 48.1439 111.965 48.803 111.965 49.5682V50.1989H104.812V48.8125H109.994C109.99 48.4186 109.905 48.0682 109.738 47.7614C109.571 47.4508 109.338 47.2064 109.039 47.0284C108.744 46.8504 108.399 46.7614 108.005 46.7614C107.585 46.7614 107.215 46.8636 106.897 47.0682C106.579 47.2689 106.331 47.5341 106.153 47.8636C105.978 48.1894 105.889 48.5473 105.886 48.9375V50.1477C105.886 50.6553 105.978 51.0909 106.164 51.4545C106.35 51.8144 106.609 52.0909 106.942 52.2841C107.276 52.4735 107.666 52.5682 108.113 52.5682C108.412 52.5682 108.683 52.5265 108.925 52.4432C109.168 52.3561 109.378 52.2292 109.556 52.0625C109.734 51.8958 109.869 51.6894 109.96 51.4432L111.88 51.6591C111.759 52.1667 111.528 52.6098 111.187 52.9886C110.85 53.3636 110.418 53.6553 109.891 53.8636C109.365 54.0682 108.763 54.1705 108.085 54.1705ZM118.126 45.2727V46.8636H112.967V45.2727H118.126ZM114.256 54V44.4489C114.256 43.8617 114.378 43.3731 114.62 42.983C114.866 42.5928 115.196 42.3011 115.609 42.108C116.022 41.9148 116.48 41.8182 116.984 41.8182C117.34 41.8182 117.656 41.8466 117.933 41.9034C118.209 41.9602 118.414 42.0114 118.546 42.0568L118.137 43.6477C118.05 43.6212 117.94 43.5947 117.808 43.5682C117.675 43.5379 117.527 43.5227 117.364 43.5227C116.982 43.5227 116.711 43.6155 116.552 43.8011C116.397 43.983 116.319 44.2443 116.319 44.5852V54H114.256ZM119.737 54V45.2727H121.793V54H119.737ZM120.771 44.0341C120.445 44.0341 120.165 43.9261 119.93 43.7102C119.695 43.4905 119.577 43.2273 119.577 42.9205C119.577 42.6098 119.695 42.3466 119.93 42.1307C120.165 41.911 120.445 41.8011 120.771 41.8011C121.1 41.8011 121.38 41.911 121.612 42.1307C121.846 42.3466 121.964 42.6098 121.964 42.9205C121.964 43.2273 121.846 43.4905 121.612 43.7102C121.38 43.9261 121.1 44.0341 120.771 44.0341ZM128.266 45.2727V46.8636H123.249V45.2727H128.266ZM124.488 43.1818H126.545V51.375C126.545 51.6515 126.586 51.8636 126.67 52.0114C126.757 52.1553 126.871 52.2538 127.011 52.3068C127.151 52.3598 127.306 52.3864 127.477 52.3864C127.605 52.3864 127.723 52.3769 127.829 52.358C127.939 52.339 128.022 52.322 128.079 52.3068L128.425 53.9148C128.316 53.9527 128.158 53.9943 127.954 54.0398C127.753 54.0852 127.507 54.1117 127.215 54.1193C126.7 54.1345 126.236 54.0568 125.823 53.8864C125.41 53.7121 125.083 53.4432 124.84 53.0795C124.602 52.7159 124.484 52.2614 124.488 51.7159V43.1818ZM136.759 47.5795L134.884 47.7841C134.831 47.5947 134.738 47.4167 134.606 47.25C134.477 47.0833 134.303 46.9489 134.083 46.8466C133.863 46.7443 133.594 46.6932 133.276 46.6932C132.848 46.6932 132.488 46.786 132.197 46.9716C131.909 47.1572 131.767 47.3977 131.771 47.6932C131.767 47.947 131.86 48.1534 132.049 48.3125C132.242 48.4716 132.56 48.6023 133.004 48.7045L134.492 49.0227C135.318 49.2008 135.932 49.483 136.333 49.8693C136.738 50.2557 136.943 50.7614 136.947 51.3864C136.943 51.9356 136.782 52.4205 136.464 52.8409C136.149 53.2576 135.712 53.5833 135.151 53.8182C134.591 54.053 133.947 54.1705 133.219 54.1705C132.151 54.1705 131.291 53.947 130.64 53.5C129.988 53.0492 129.6 52.4223 129.475 51.6193L131.481 51.4261C131.572 51.8201 131.765 52.1174 132.06 52.3182C132.356 52.5189 132.74 52.6193 133.214 52.6193C133.702 52.6193 134.094 52.5189 134.39 52.3182C134.689 52.1174 134.839 51.8693 134.839 51.5739C134.839 51.3239 134.742 51.1174 134.549 50.9545C134.36 50.7917 134.064 50.6667 133.663 50.5795L132.174 50.267C131.337 50.0928 130.718 49.7992 130.316 49.3864C129.915 48.9697 129.716 48.4432 129.719 47.8068C129.716 47.2689 129.862 46.803 130.157 46.4091C130.456 46.0114 130.871 45.7045 131.401 45.4886C131.935 45.2689 132.551 45.1591 133.248 45.1591C134.271 45.1591 135.076 45.3769 135.663 45.8125C136.254 46.2481 136.619 46.8371 136.759 47.5795Z" fill="#F9FCFE"/>
<path d="M234.284 45.5625C234.231 45.0663 234.008 44.6799 233.614 44.4034C233.223 44.1269 232.716 43.9886 232.091 43.9886C231.652 43.9886 231.275 44.0549 230.96 44.1875C230.646 44.3201 230.405 44.5 230.239 44.7273C230.072 44.9545 229.987 45.214 229.983 45.5057C229.983 45.7481 230.038 45.9583 230.148 46.1364C230.261 46.3144 230.415 46.4659 230.608 46.5909C230.801 46.7121 231.015 46.8144 231.25 46.8977C231.485 46.9811 231.722 47.0511 231.96 47.108L233.051 47.3807C233.491 47.483 233.913 47.6212 234.318 47.7955C234.727 47.9697 235.093 48.1894 235.415 48.4545C235.741 48.7197 235.998 49.0398 236.188 49.4148C236.377 49.7898 236.472 50.2292 236.472 50.733C236.472 51.4148 236.297 52.0152 235.949 52.5341C235.6 53.0492 235.097 53.4527 234.438 53.7443C233.782 54.0322 232.989 54.1761 232.057 54.1761C231.152 54.1761 230.366 54.036 229.699 53.7557C229.036 53.4754 228.517 53.0663 228.142 52.5284C227.771 51.9905 227.57 51.3352 227.54 50.5625H229.614C229.644 50.9678 229.769 51.3049 229.989 51.5739C230.208 51.8428 230.494 52.0436 230.847 52.1761C231.203 52.3087 231.6 52.375 232.04 52.375C232.498 52.375 232.9 52.3068 233.244 52.1705C233.593 52.0303 233.866 51.8371 234.062 51.5909C234.259 51.3409 234.36 51.0492 234.364 50.7159C234.36 50.4129 234.271 50.1629 234.097 49.9659C233.922 49.7652 233.678 49.5985 233.364 49.4659C233.053 49.3295 232.689 49.2083 232.273 49.1023L230.949 48.7614C229.991 48.5152 229.233 48.142 228.676 47.642C228.123 47.1383 227.847 46.4697 227.847 45.6364C227.847 44.9508 228.032 44.3504 228.403 43.8352C228.778 43.3201 229.288 42.9205 229.932 42.6364C230.576 42.3485 231.305 42.2045 232.119 42.2045C232.945 42.2045 233.669 42.3485 234.29 42.6364C234.915 42.9205 235.405 43.3163 235.761 43.8239C236.117 44.3277 236.301 44.9072 236.312 45.5625H234.284ZM242.124 54.1705C241.249 54.1705 240.493 53.9886 239.857 53.625C239.224 53.2576 238.737 52.7386 238.396 52.0682C238.055 51.3939 237.885 50.6004 237.885 49.6875C237.885 48.7898 238.055 48.0019 238.396 47.3239C238.741 46.642 239.222 46.1117 239.839 45.733C240.457 45.3504 241.182 45.1591 242.016 45.1591C242.554 45.1591 243.061 45.2462 243.538 45.4205C244.019 45.5909 244.444 45.8561 244.811 46.2159C245.182 46.5758 245.474 47.0341 245.686 47.5909C245.898 48.1439 246.004 48.803 246.004 49.5682V50.1989H238.851V48.8125H244.033C244.029 48.4186 243.944 48.0682 243.777 47.7614C243.61 47.4508 243.377 47.2064 243.078 47.0284C242.783 46.8504 242.438 46.7614 242.044 46.7614C241.624 46.7614 241.254 46.8636 240.936 47.0682C240.618 47.2689 240.37 47.5341 240.192 47.8636C240.018 48.1894 239.929 48.5473 239.925 48.9375V50.1477C239.925 50.6553 240.018 51.0909 240.203 51.4545C240.389 51.8144 240.648 52.0909 240.982 52.2841C241.315 52.4735 241.705 52.5682 242.152 52.5682C242.451 52.5682 242.722 52.5265 242.964 52.4432C243.207 52.3561 243.417 52.2292 243.595 52.0625C243.773 51.8958 243.908 51.6894 243.999 51.4432L245.919 51.6591C245.798 52.1667 245.567 52.6098 245.226 52.9886C244.889 53.3636 244.457 53.6553 243.93 53.8636C243.404 54.0682 242.802 54.1705 242.124 54.1705ZM247.744 54V45.2727H249.739V46.7273H249.83C249.989 46.2235 250.261 45.8352 250.648 45.5625C251.038 45.286 251.483 45.1477 251.983 45.1477C252.097 45.1477 252.223 45.1534 252.364 45.1648C252.508 45.1723 252.627 45.1856 252.722 45.2045V47.0966C252.634 47.0663 252.496 47.0398 252.307 47.017C252.121 46.9905 251.941 46.9773 251.767 46.9773C251.392 46.9773 251.055 47.0587 250.756 47.2216C250.46 47.3807 250.227 47.6023 250.057 47.8864C249.886 48.1705 249.801 48.4981 249.801 48.8693V54H247.744ZM262.149 45.2727L259.041 54H256.768L253.661 45.2727H255.854L257.859 51.7557H257.95L259.962 45.2727H262.149ZM263.572 54V45.2727H265.629V54H263.572ZM264.607 44.0341C264.281 44.0341 264 43.9261 263.766 43.7102C263.531 43.4905 263.413 43.2273 263.413 42.9205C263.413 42.6098 263.531 42.3466 263.766 42.1307C264 41.911 264.281 41.8011 264.607 41.8011C264.936 41.8011 265.216 41.911 265.447 42.1307C265.682 42.3466 265.8 42.6098 265.8 42.9205C265.8 43.2273 265.682 43.4905 265.447 43.7102C265.216 43.9261 264.936 44.0341 264.607 44.0341ZM271.551 54.1705C270.68 54.1705 269.932 53.9792 269.307 53.5966C268.686 53.214 268.206 52.6856 267.869 52.0114C267.536 51.3333 267.369 50.553 267.369 49.6705C267.369 48.7841 267.54 48.0019 267.881 47.3239C268.222 46.642 268.703 46.1117 269.324 45.733C269.949 45.3504 270.688 45.1591 271.54 45.1591C272.248 45.1591 272.875 45.2898 273.42 45.5511C273.97 45.8087 274.407 46.1742 274.733 46.6477C275.059 47.1174 275.244 47.6667 275.29 48.2955H273.324C273.244 47.875 273.055 47.5246 272.756 47.2443C272.46 46.9602 272.064 46.8182 271.568 46.8182C271.148 46.8182 270.778 46.9318 270.46 47.1591C270.142 47.3826 269.894 47.7045 269.716 48.125C269.542 48.5455 269.455 49.0492 269.455 49.6364C269.455 50.2311 269.542 50.7424 269.716 51.1705C269.89 51.5947 270.134 51.9223 270.449 52.1534C270.767 52.3807 271.14 52.4943 271.568 52.4943C271.871 52.4943 272.142 52.4375 272.381 52.3239C272.623 52.2064 272.826 52.0379 272.989 51.8182C273.152 51.5985 273.263 51.3314 273.324 51.017H275.29C275.241 51.6345 275.059 52.1818 274.744 52.6591C274.43 53.1326 274.002 53.5038 273.46 53.7727C272.919 54.0379 272.282 54.1705 271.551 54.1705ZM280.842 54.1705C279.967 54.1705 279.212 53.9886 278.575 53.625C277.943 53.2576 277.456 52.7386 277.115 52.0682C276.774 51.3939 276.604 50.6004 276.604 49.6875C276.604 48.7898 276.774 48.0019 277.115 47.3239C277.46 46.642 277.941 46.1117 278.558 45.733C279.176 45.3504 279.901 45.1591 280.734 45.1591C281.272 45.1591 281.78 45.2462 282.257 45.4205C282.738 45.5909 283.162 45.8561 283.53 46.2159C283.901 46.5758 284.193 47.0341 284.405 47.5909C284.617 48.1439 284.723 48.803 284.723 49.5682V50.1989H277.57V48.8125H282.751C282.748 48.4186 282.662 48.0682 282.496 47.7614C282.329 47.4508 282.096 47.2064 281.797 47.0284C281.501 46.8504 281.157 46.7614 280.763 46.7614C280.342 46.7614 279.973 46.8636 279.655 47.0682C279.337 47.2689 279.089 47.5341 278.911 47.8636C278.736 48.1894 278.647 48.5473 278.643 48.9375V50.1477C278.643 50.6553 278.736 51.0909 278.922 51.4545C279.107 51.8144 279.367 52.0909 279.7 52.2841C280.034 52.4735 280.424 52.5682 280.871 52.5682C281.17 52.5682 281.441 52.5265 281.683 52.4432C281.926 52.3561 282.136 52.2292 282.314 52.0625C282.492 51.8958 282.626 51.6894 282.717 51.4432L284.638 51.6591C284.517 52.1667 284.286 52.6098 283.945 52.9886C283.607 53.3636 283.176 53.6553 282.649 53.8636C282.123 54.0682 281.52 54.1705 280.842 54.1705ZM293.361 47.5795L291.486 47.7841C291.433 47.5947 291.34 47.4167 291.207 47.25C291.079 47.0833 290.904 46.9489 290.685 46.8466C290.465 46.7443 290.196 46.6932 289.878 46.6932C289.45 46.6932 289.09 46.786 288.798 46.9716C288.51 47.1572 288.368 47.3977 288.372 47.6932C288.368 47.947 288.461 48.1534 288.651 48.3125C288.844 48.4716 289.162 48.6023 289.605 48.7045L291.094 49.0227C291.92 49.2008 292.533 49.483 292.935 49.8693C293.34 50.2557 293.545 50.7614 293.548 51.3864C293.545 51.9356 293.384 52.4205 293.065 52.8409C292.751 53.2576 292.313 53.5833 291.753 53.8182C291.192 54.053 290.548 54.1705 289.821 54.1705C288.753 54.1705 287.893 53.947 287.241 53.5C286.59 53.0492 286.202 52.4223 286.077 51.6193L288.082 51.4261C288.173 51.8201 288.366 52.1174 288.662 52.3182C288.957 52.5189 289.342 52.6193 289.815 52.6193C290.304 52.6193 290.696 52.5189 290.991 52.3182C291.291 52.1174 291.44 51.8693 291.44 51.5739C291.44 51.3239 291.344 51.1174 291.151 50.9545C290.961 50.7917 290.666 50.6667 290.264 50.5795L288.776 50.267C287.938 50.0928 287.319 49.7992 286.918 49.3864C286.516 48.9697 286.317 48.4432 286.321 47.8068C286.317 47.2689 286.463 46.803 286.759 46.4091C287.058 46.0114 287.473 45.7045 288.003 45.4886C288.537 45.2689 289.152 45.1591 289.849 45.1591C290.872 45.1591 291.677 45.3769 292.264 45.8125C292.855 46.2481 293.221 46.8371 293.361 47.5795Z" fill="#F9FCFE"/>
<path d="M394.972 44.1307V42.3636H404.256V44.1307H400.66V54H398.569V44.1307H394.972ZM408.553 54.1705C407.678 54.1705 406.923 53.9886 406.286 53.625C405.654 53.2576 405.167 52.7386 404.826 52.0682C404.485 51.3939 404.315 50.6004 404.315 49.6875C404.315 48.7898 404.485 48.0019 404.826 47.3239C405.171 46.642 405.652 46.1117 406.269 45.733C406.887 45.3504 407.612 45.1591 408.445 45.1591C408.983 45.1591 409.491 45.2462 409.968 45.4205C410.449 45.5909 410.873 45.8561 411.241 46.2159C411.612 46.5758 411.904 47.0341 412.116 47.5909C412.328 48.1439 412.434 48.803 412.434 49.5682V50.1989H405.281V48.8125H410.462C410.459 48.4186 410.373 48.0682 410.207 47.7614C410.04 47.4508 409.807 47.2064 409.508 47.0284C409.212 46.8504 408.868 46.7614 408.474 46.7614C408.053 46.7614 407.684 46.8636 407.366 47.0682C407.048 47.2689 406.799 47.5341 406.621 47.8636C406.447 48.1894 406.358 48.5473 406.354 48.9375V50.1477C406.354 50.6553 406.447 51.0909 406.633 51.4545C406.818 51.8144 407.078 52.0909 407.411 52.2841C407.745 52.4735 408.135 52.5682 408.582 52.5682C408.881 52.5682 409.152 52.5265 409.394 52.4432C409.637 52.3561 409.847 52.2292 410.025 52.0625C410.203 51.8958 410.337 51.6894 410.428 51.4432L412.349 51.6591C412.228 52.1667 411.996 52.6098 411.656 52.9886C411.318 53.3636 410.887 53.6553 410.36 53.8636C409.834 54.0682 409.231 54.1705 408.553 54.1705ZM416.685 54.1761C416.132 54.1761 415.634 54.0777 415.191 53.8807C414.752 53.6799 414.403 53.3845 414.146 52.9943C413.892 52.6042 413.765 52.1231 413.765 51.5511C413.765 51.0587 413.856 50.6515 414.038 50.3295C414.219 50.0076 414.468 49.75 414.782 49.5568C415.096 49.3636 415.451 49.2178 415.844 49.1193C416.242 49.017 416.653 48.9432 417.077 48.8977C417.589 48.8447 418.004 48.7973 418.322 48.7557C418.64 48.7102 418.871 48.642 419.015 48.5511C419.163 48.4564 419.237 48.3106 419.237 48.1136V48.0795C419.237 47.6515 419.11 47.3201 418.856 47.0852C418.602 46.8504 418.237 46.733 417.759 46.733C417.255 46.733 416.856 46.8428 416.56 47.0625C416.269 47.2822 416.072 47.5417 415.969 47.8409L414.049 47.5682C414.201 47.0379 414.451 46.5947 414.799 46.2386C415.147 45.8788 415.574 45.6098 416.077 45.4318C416.581 45.25 417.138 45.1591 417.748 45.1591C418.168 45.1591 418.587 45.2083 419.004 45.3068C419.42 45.4053 419.801 45.5682 420.146 45.7955C420.49 46.0189 420.767 46.3239 420.975 46.7102C421.187 47.0966 421.293 47.5795 421.293 48.1591V54H419.316V52.8011H419.248C419.123 53.0436 418.947 53.2708 418.719 53.483C418.496 53.6913 418.214 53.8598 417.873 53.9886C417.536 54.1136 417.14 54.1761 416.685 54.1761ZM417.219 52.6648C417.632 52.6648 417.99 52.5833 418.293 52.4205C418.596 52.2538 418.829 52.0341 418.992 51.7614C419.159 51.4886 419.242 51.1913 419.242 50.8693V49.8409C419.178 49.8939 419.068 49.9432 418.913 49.9886C418.761 50.0341 418.591 50.0739 418.401 50.108C418.212 50.142 418.024 50.1723 417.839 50.1989C417.653 50.2254 417.492 50.2481 417.356 50.267C417.049 50.3087 416.774 50.3769 416.532 50.4716C416.29 50.5663 416.098 50.6989 415.958 50.8693C415.818 51.036 415.748 51.2519 415.748 51.517C415.748 51.8958 415.886 52.1818 416.163 52.375C416.439 52.5682 416.791 52.6648 417.219 52.6648ZM423.362 54V45.2727H425.327V46.7557H425.43C425.612 46.2557 425.913 45.8655 426.333 45.5852C426.754 45.3011 427.255 45.1591 427.839 45.1591C428.43 45.1591 428.928 45.303 429.333 45.5909C429.742 45.875 430.03 46.2633 430.197 46.7557H430.288C430.481 46.2708 430.807 45.8845 431.265 45.5966C431.727 45.3049 432.274 45.1591 432.907 45.1591C433.71 45.1591 434.365 45.4129 434.873 45.9205C435.38 46.428 435.634 47.1686 435.634 48.142V54H433.572V48.4602C433.572 47.9186 433.428 47.5227 433.14 47.2727C432.852 47.0189 432.5 46.892 432.083 46.892C431.587 46.892 431.199 47.0473 430.918 47.358C430.642 47.6648 430.504 48.0644 430.504 48.5568V54H428.487V48.375C428.487 47.9242 428.35 47.5644 428.077 47.2955C427.808 47.0265 427.456 46.892 427.021 46.892C426.725 46.892 426.456 46.9678 426.214 47.1193C425.971 47.267 425.778 47.4773 425.634 47.75C425.49 48.0189 425.418 48.3333 425.418 48.6932V54H423.362Z" fill="#F9FCFE"/>
<path d="M550.554 54V42.3636H554.918C555.812 42.3636 556.562 42.5303 557.168 42.8636C557.777 43.197 558.238 43.6553 558.548 44.2386C558.863 44.8182 559.02 45.4773 559.02 46.2159C559.02 46.9621 558.863 47.625 558.548 48.2045C558.234 48.7841 557.77 49.2405 557.156 49.5739C556.543 49.9034 555.787 50.0682 554.889 50.0682H551.997V48.3352H554.605C555.128 48.3352 555.556 48.2443 555.889 48.0625C556.223 47.8807 556.469 47.6307 556.628 47.3125C556.791 46.9943 556.872 46.6288 556.872 46.2159C556.872 45.803 556.791 45.4394 556.628 45.125C556.469 44.8106 556.221 44.5663 555.884 44.392C555.55 44.214 555.12 44.125 554.594 44.125H552.662V54H550.554ZM562.817 42.3636V54H560.76V42.3636H562.817ZM567.443 54.1761C566.89 54.1761 566.392 54.0777 565.949 53.8807C565.509 53.6799 565.161 53.3845 564.903 52.9943C564.65 52.6042 564.523 52.1231 564.523 51.5511C564.523 51.0587 564.614 50.6515 564.795 50.3295C564.977 50.0076 565.225 49.75 565.54 49.5568C565.854 49.3636 566.208 49.2178 566.602 49.1193C567 49.017 567.411 48.9432 567.835 48.8977C568.347 48.8447 568.761 48.7973 569.08 48.7557C569.398 48.7102 569.629 48.642 569.773 48.5511C569.92 48.4564 569.994 48.3106 569.994 48.1136V48.0795C569.994 47.6515 569.867 47.3201 569.614 47.0852C569.36 46.8504 568.994 46.733 568.517 46.733C568.013 46.733 567.614 46.8428 567.318 47.0625C567.027 47.2822 566.83 47.5417 566.727 47.8409L564.807 47.5682C564.958 47.0379 565.208 46.5947 565.557 46.2386C565.905 45.8788 566.331 45.6098 566.835 45.4318C567.339 45.25 567.896 45.1591 568.506 45.1591C568.926 45.1591 569.345 45.2083 569.761 45.3068C570.178 45.4053 570.559 45.5682 570.903 45.7955C571.248 46.0189 571.525 46.3239 571.733 46.7102C571.945 47.0966 572.051 47.5795 572.051 48.1591V54H570.074V52.8011H570.006C569.881 53.0436 569.705 53.2708 569.477 53.483C569.254 53.6913 568.972 53.8598 568.631 53.9886C568.294 54.1136 567.898 54.1761 567.443 54.1761ZM567.977 52.6648C568.39 52.6648 568.748 52.5833 569.051 52.4205C569.354 52.2538 569.587 52.0341 569.75 51.7614C569.917 51.4886 570 51.1913 570 50.8693V49.8409C569.936 49.8939 569.826 49.9432 569.67 49.9886C569.519 50.0341 569.348 50.0739 569.159 50.108C568.97 50.142 568.782 50.1723 568.597 50.1989C568.411 50.2254 568.25 50.2481 568.114 50.267C567.807 50.3087 567.532 50.3769 567.29 50.4716C567.047 50.5663 566.856 50.6989 566.716 50.8693C566.576 51.036 566.506 51.2519 566.506 51.517C566.506 51.8958 566.644 52.1818 566.92 52.375C567.197 52.5682 567.549 52.6648 567.977 52.6648ZM576.176 48.8864V54H574.119V45.2727H576.085V46.7557H576.188C576.388 46.267 576.708 45.8788 577.148 45.5909C577.591 45.303 578.138 45.1591 578.79 45.1591C579.392 45.1591 579.917 45.2879 580.364 45.5455C580.814 45.803 581.163 46.1761 581.409 46.6648C581.659 47.1534 581.782 47.7462 581.778 48.4432V54H579.722V48.7614C579.722 48.178 579.57 47.7216 579.267 47.392C578.968 47.0625 578.553 46.8977 578.023 46.8977C577.663 46.8977 577.343 46.9773 577.062 47.1364C576.786 47.2917 576.568 47.517 576.409 47.8125C576.254 48.108 576.176 48.4659 576.176 48.8864ZM590.767 47.5795L588.892 47.7841C588.839 47.5947 588.746 47.4167 588.614 47.25C588.485 47.0833 588.311 46.9489 588.091 46.8466C587.871 46.7443 587.602 46.6932 587.284 46.6932C586.856 46.6932 586.496 46.786 586.205 46.9716C585.917 47.1572 585.775 47.3977 585.778 47.6932C585.775 47.947 585.867 48.1534 586.057 48.3125C586.25 48.4716 586.568 48.6023 587.011 48.7045L588.5 49.0227C589.326 49.2008 589.939 49.483 590.341 49.8693C590.746 50.2557 590.951 50.7614 590.955 51.3864C590.951 51.9356 590.79 52.4205 590.472 52.8409C590.157 53.2576 589.72 53.5833 589.159 53.8182C588.598 54.053 587.955 54.1705 587.227 54.1705C586.159 54.1705 585.299 53.947 584.648 53.5C583.996 53.0492 583.608 52.4223 583.483 51.6193L585.489 51.4261C585.58 51.8201 585.773 52.1174 586.068 52.3182C586.364 52.5189 586.748 52.6193 587.222 52.6193C587.71 52.6193 588.102 52.5189 588.398 52.3182C588.697 52.1174 588.847 51.8693 588.847 51.5739C588.847 51.3239 588.75 51.1174 588.557 50.9545C588.367 50.7917 588.072 50.6667 587.67 50.5795L586.182 50.267C585.345 50.0928 584.725 49.7992 584.324 49.3864C583.922 48.9697 583.723 48.4432 583.727 47.8068C583.723 47.2689 583.869 46.803 584.165 46.4091C584.464 46.0114 584.879 45.7045 585.409 45.4886C585.943 45.2689 586.559 45.1591 587.256 45.1591C588.278 45.1591 589.083 45.3769 589.67 45.8125C590.261 46.2481 590.627 46.8371 590.767 47.5795Z" fill="#F9FCFE"/>
<path d="M690.491 46.2898H688.366C688.305 45.9413 688.193 45.6326 688.031 45.3636C687.868 45.0909 687.665 44.8598 687.423 44.6705C687.18 44.4811 686.904 44.339 686.593 44.2443C686.286 44.1458 685.955 44.0966 685.599 44.0966C684.966 44.0966 684.406 44.2557 683.917 44.5739C683.428 44.8883 683.046 45.3504 682.769 45.9602C682.493 46.5663 682.354 47.3068 682.354 48.1818C682.354 49.072 682.493 49.822 682.769 50.4318C683.049 51.0379 683.432 51.4962 683.917 51.8068C684.406 52.1136 684.964 52.267 685.593 52.267C685.942 52.267 686.267 52.2216 686.57 52.1307C686.877 52.036 687.152 51.8977 687.394 51.7159C687.64 51.5341 687.847 51.3106 688.013 51.0455C688.184 50.7803 688.301 50.4773 688.366 50.1364L690.491 50.1477C690.411 50.7008 690.239 51.2197 689.974 51.7045C689.712 52.1894 689.37 52.6174 688.945 52.9886C688.521 53.3561 688.025 53.6439 687.457 53.8523C686.888 54.0568 686.258 54.1591 685.565 54.1591C684.542 54.1591 683.629 53.9223 682.826 53.4489C682.023 52.9754 681.39 52.2917 680.928 51.3977C680.466 50.5038 680.235 49.4318 680.235 48.1818C680.235 46.928 680.468 45.8561 680.934 44.9659C681.4 44.072 682.034 43.3883 682.837 42.9148C683.64 42.4413 684.549 42.2045 685.565 42.2045C686.212 42.2045 686.815 42.2955 687.371 42.4773C687.928 42.6591 688.424 42.9261 688.86 43.2784C689.296 43.6269 689.654 44.0549 689.934 44.5625C690.218 45.0663 690.404 45.642 690.491 46.2898ZM694.387 42.3636V54H692.33V42.3636H694.387ZM696.502 54V45.2727H698.559V54H696.502ZM697.536 44.0341C697.21 44.0341 696.93 43.9261 696.695 43.7102C696.46 43.4905 696.343 43.2273 696.343 42.9205C696.343 42.6098 696.46 42.3466 696.695 42.1307C696.93 41.911 697.21 41.8011 697.536 41.8011C697.866 41.8011 698.146 41.911 698.377 42.1307C698.612 42.3466 698.729 42.6098 698.729 42.9205C698.729 43.2273 698.612 43.4905 698.377 43.7102C698.146 43.9261 697.866 44.0341 697.536 44.0341ZM704.538 54.1705C703.663 54.1705 702.907 53.9886 702.271 53.625C701.638 53.2576 701.151 52.7386 700.81 52.0682C700.469 51.3939 700.299 50.6004 700.299 49.6875C700.299 48.7898 700.469 48.0019 700.81 47.3239C701.155 46.642 701.636 46.1117 702.254 45.733C702.871 45.3504 703.596 45.1591 704.43 45.1591C704.968 45.1591 705.475 45.2462 705.952 45.4205C706.433 45.5909 706.858 45.8561 707.225 46.2159C707.596 46.5758 707.888 47.0341 708.1 47.5909C708.312 48.1439 708.418 48.803 708.418 49.5682V50.1989H701.265V48.8125H706.447C706.443 48.4186 706.358 48.0682 706.191 47.7614C706.024 47.4508 705.791 47.2064 705.492 47.0284C705.197 46.8504 704.852 46.7614 704.458 46.7614C704.038 46.7614 703.668 46.8636 703.35 47.0682C703.032 47.2689 702.784 47.5341 702.606 47.8636C702.432 48.1894 702.343 48.5473 702.339 48.9375V50.1477C702.339 50.6553 702.432 51.0909 702.617 51.4545C702.803 51.8144 703.062 52.0909 703.396 52.2841C703.729 52.4735 704.119 52.5682 704.566 52.5682C704.865 52.5682 705.136 52.5265 705.379 52.4432C705.621 52.3561 705.831 52.2292 706.009 52.0625C706.187 51.8958 706.322 51.6894 706.413 51.4432L708.333 51.6591C708.212 52.1667 707.981 52.6098 707.64 52.9886C707.303 53.3636 706.871 53.6553 706.344 53.8636C705.818 54.0682 705.216 54.1705 704.538 54.1705ZM712.215 48.8864V54H710.158V45.2727H712.124V46.7557H712.227C712.427 46.267 712.747 45.8788 713.187 45.5909C713.63 45.303 714.177 45.1591 714.829 45.1591C715.431 45.1591 715.956 45.2879 716.403 45.5455C716.853 45.803 717.202 46.1761 717.448 46.6648C717.698 47.1534 717.821 47.7462 717.817 48.4432V54H715.761V48.7614C715.761 48.178 715.609 47.7216 715.306 47.392C715.007 47.0625 714.592 46.8977 714.062 46.8977C713.702 46.8977 713.382 46.9773 713.102 47.1364C712.825 47.2917 712.607 47.517 712.448 47.8125C712.293 48.108 712.215 48.4659 712.215 48.8864ZM724.266 45.2727V46.8636H719.249V45.2727H724.266ZM720.488 43.1818H722.545V51.375C722.545 51.6515 722.586 51.8636 722.67 52.0114C722.757 52.1553 722.871 52.2538 723.011 52.3068C723.151 52.3598 723.306 52.3864 723.477 52.3864C723.605 52.3864 723.723 52.3769 723.829 52.358C723.939 52.339 724.022 52.322 724.079 52.3068L724.425 53.9148C724.316 53.9527 724.158 53.9943 723.954 54.0398C723.753 54.0852 723.507 54.1117 723.215 54.1193C722.7 54.1345 722.236 54.0568 721.823 53.8864C721.41 53.7121 721.083 53.4432 720.84 53.0795C720.602 52.7159 720.484 52.2614 720.488 51.7159V43.1818ZM730.046 54V42.3636H732.154V52.233H737.279V54H730.046ZM742.825 54.1705C741.972 54.1705 741.234 53.983 740.609 53.608C739.984 53.233 739.499 52.7083 739.154 52.0341C738.813 51.3598 738.643 50.572 738.643 49.6705C738.643 48.7689 738.813 47.9792 739.154 47.3011C739.499 46.6231 739.984 46.0966 740.609 45.7216C741.234 45.3466 741.972 45.1591 742.825 45.1591C743.677 45.1591 744.415 45.3466 745.04 45.7216C745.665 46.0966 746.148 46.6231 746.489 47.3011C746.834 47.9792 747.006 48.7689 747.006 49.6705C747.006 50.572 746.834 51.3598 746.489 52.0341C746.148 52.7083 745.665 53.233 745.04 53.608C744.415 53.983 743.677 54.1705 742.825 54.1705ZM742.836 52.5227C743.298 52.5227 743.684 52.3958 743.995 52.142C744.306 51.8845 744.537 51.5398 744.688 51.108C744.844 50.6761 744.921 50.1951 744.921 49.6648C744.921 49.1307 744.844 48.6477 744.688 48.2159C744.537 47.7803 744.306 47.4337 743.995 47.1761C743.684 46.9186 743.298 46.7898 742.836 46.7898C742.362 46.7898 741.969 46.9186 741.654 47.1761C741.344 47.4337 741.111 47.7803 740.955 48.2159C740.804 48.6477 740.728 49.1307 740.728 49.6648C740.728 50.1951 740.804 50.6761 740.955 51.108C741.111 51.5398 741.344 51.8845 741.654 52.142C741.969 52.3958 742.362 52.5227 742.836 52.5227ZM752.548 57.4545C751.809 57.4545 751.174 57.3542 750.644 57.1534C750.114 56.9564 749.688 56.6913 749.366 56.358C749.044 56.0246 748.82 55.6553 748.695 55.25L750.548 54.8011C750.631 54.9716 750.752 55.1402 750.911 55.3068C751.07 55.4773 751.284 55.6174 751.553 55.7273C751.826 55.8409 752.169 55.8977 752.582 55.8977C753.165 55.8977 753.648 55.7557 754.031 55.4716C754.413 55.1913 754.604 54.7292 754.604 54.0852V52.4318H754.502C754.396 52.6439 754.241 52.8617 754.036 53.0852C753.835 53.3087 753.568 53.4962 753.235 53.6477C752.906 53.7992 752.491 53.875 751.991 53.875C751.32 53.875 750.712 53.7178 750.167 53.4034C749.625 53.0852 749.193 52.6117 748.871 51.983C748.553 51.3504 748.394 50.5587 748.394 49.608C748.394 48.6496 748.553 47.8409 748.871 47.1818C749.193 46.5189 749.627 46.017 750.173 45.6761C750.718 45.3314 751.326 45.1591 751.996 45.1591C752.508 45.1591 752.928 45.2462 753.258 45.4205C753.591 45.5909 753.856 45.7973 754.053 46.0398C754.25 46.2784 754.4 46.5038 754.502 46.7159H754.616V45.2727H756.644V54.142C756.644 54.8883 756.466 55.5057 756.11 55.9943C755.754 56.483 755.267 56.8485 754.65 57.0909C754.032 57.3333 753.332 57.4545 752.548 57.4545ZM752.565 52.2614C753 52.2614 753.371 52.1553 753.678 51.9432C753.985 51.7311 754.218 51.4261 754.377 51.0284C754.536 50.6307 754.616 50.1534 754.616 49.5966C754.616 49.0473 754.536 48.5663 754.377 48.1534C754.222 47.7405 753.991 47.4205 753.684 47.1932C753.381 46.9621 753.008 46.8466 752.565 46.8466C752.106 46.8466 751.724 46.9659 751.417 47.2045C751.11 47.4432 750.879 47.7708 750.724 48.1875C750.568 48.6004 750.491 49.0701 750.491 49.5966C750.491 50.1307 750.568 50.5985 750.724 51C750.883 51.3977 751.116 51.7083 751.423 51.9318C751.733 52.1515 752.114 52.2614 752.565 52.2614ZM758.752 54V45.2727H760.809V54H758.752ZM759.786 44.0341C759.46 44.0341 759.18 43.9261 758.945 43.7102C758.71 43.4905 758.593 43.2273 758.593 42.9205C758.593 42.6098 758.71 42.3466 758.945 42.1307C759.18 41.911 759.46 41.8011 759.786 41.8011C760.116 41.8011 760.396 41.911 760.627 42.1307C760.862 42.3466 760.979 42.6098 760.979 42.9205C760.979 43.2273 760.862 43.4905 760.627 43.7102C760.396 43.9261 760.116 44.0341 759.786 44.0341ZM764.981 48.8864V54H762.924V45.2727H764.89V46.7557H764.992C765.193 46.267 765.513 45.8788 765.952 45.5909C766.396 45.303 766.943 45.1591 767.594 45.1591C768.197 45.1591 768.721 45.2879 769.168 45.5455C769.619 45.803 769.968 46.1761 770.214 46.6648C770.464 47.1534 770.587 47.7462 770.583 48.4432V54H768.526V48.7614C768.526 48.178 768.375 47.7216 768.072 47.392C767.772 47.0625 767.358 46.8977 766.827 46.8977C766.468 46.8977 766.147 46.9773 765.867 47.1364C765.591 47.2917 765.373 47.517 765.214 47.8125C765.058 48.108 764.981 48.4659 764.981 48.8864Z" fill="#F9FCFE"/>
<path d="M807 48C807 34.7452 817.745 24 831 24H930C943.255 24 954 34.7452 954 48C954 61.2548 943.255 72 930 72H831C817.745 72 807 61.2548 807 48Z" fill="#7C2862"/>
<path d="M848.389 46.2898H846.264C846.204 45.9413 846.092 45.6326 845.929 45.3636C845.766 45.0909 845.563 44.8598 845.321 44.6705C845.079 44.4811 844.802 44.339 844.491 44.2443C844.185 44.1458 843.853 44.0966 843.497 44.0966C842.865 44.0966 842.304 44.2557 841.815 44.5739C841.327 44.8883 840.944 45.3504 840.668 45.9602C840.391 46.5663 840.253 47.3068 840.253 48.1818C840.253 49.072 840.391 49.822 840.668 50.4318C840.948 51.0379 841.33 51.4962 841.815 51.8068C842.304 52.1136 842.863 52.267 843.491 52.267C843.84 52.267 844.166 52.2216 844.469 52.1307C844.776 52.036 845.05 51.8977 845.293 51.7159C845.539 51.5341 845.745 51.3106 845.912 51.0455C846.082 50.7803 846.2 50.4773 846.264 50.1364L848.389 50.1477C848.31 50.7008 848.137 51.2197 847.872 51.7045C847.611 52.1894 847.268 52.6174 846.844 52.9886C846.42 53.3561 845.923 53.6439 845.355 53.8523C844.787 54.0568 844.156 54.1591 843.463 54.1591C842.44 54.1591 841.527 53.9223 840.724 53.4489C839.921 52.9754 839.289 52.2917 838.827 51.3977C838.365 50.5038 838.134 49.4318 838.134 48.1818C838.134 46.928 838.366 45.8561 838.832 44.9659C839.298 44.072 839.933 43.3883 840.736 42.9148C841.539 42.4413 842.448 42.2045 843.463 42.2045C844.111 42.2045 844.713 42.2955 845.27 42.4773C845.827 42.6591 846.323 42.9261 846.759 43.2784C847.194 43.6269 847.552 44.0549 847.832 44.5625C848.116 45.0663 848.302 45.642 848.389 46.2898ZM854.036 54.1705C853.183 54.1705 852.445 53.983 851.82 53.608C851.195 53.233 850.71 52.7083 850.365 52.0341C850.024 51.3598 849.854 50.572 849.854 49.6705C849.854 48.7689 850.024 47.9792 850.365 47.3011C850.71 46.6231 851.195 46.0966 851.82 45.7216C852.445 45.3466 853.183 45.1591 854.036 45.1591C854.888 45.1591 855.626 45.3466 856.251 45.7216C856.876 46.0966 857.359 46.6231 857.7 47.3011C858.045 47.9792 858.217 48.7689 858.217 49.6705C858.217 50.572 858.045 51.3598 857.7 52.0341C857.359 52.7083 856.876 53.233 856.251 53.608C855.626 53.983 854.888 54.1705 854.036 54.1705ZM854.047 52.5227C854.509 52.5227 854.895 52.3958 855.206 52.142C855.517 51.8845 855.748 51.5398 855.899 51.108C856.054 50.6761 856.132 50.1951 856.132 49.6648C856.132 49.1307 856.054 48.6477 855.899 48.2159C855.748 47.7803 855.517 47.4337 855.206 47.1761C854.895 46.9186 854.509 46.7898 854.047 46.7898C853.573 46.7898 853.179 46.9186 852.865 47.1761C852.554 47.4337 852.321 47.7803 852.166 48.2159C852.015 48.6477 851.939 49.1307 851.939 49.6648C851.939 50.1951 852.015 50.6761 852.166 51.108C852.321 51.5398 852.554 51.8845 852.865 52.142C853.179 52.3958 853.573 52.5227 854.047 52.5227ZM862.02 48.8864V54H859.963V45.2727H861.929V46.7557H862.031C862.232 46.267 862.552 45.8788 862.991 45.5909C863.435 45.303 863.982 45.1591 864.634 45.1591C865.236 45.1591 865.76 45.2879 866.207 45.5455C866.658 45.803 867.007 46.1761 867.253 46.6648C867.503 47.1534 867.626 47.7462 867.622 48.4432V54H865.565V48.7614C865.565 48.178 865.414 47.7216 865.111 47.392C864.812 47.0625 864.397 46.8977 863.866 46.8977C863.507 46.8977 863.187 46.9773 862.906 47.1364C862.63 47.2917 862.412 47.517 862.253 47.8125C862.098 48.108 862.02 48.4659 862.02 48.8864ZM874.071 45.2727V46.8636H869.054V45.2727H874.071ZM870.293 43.1818H872.349V51.375C872.349 51.6515 872.391 51.8636 872.474 52.0114C872.562 52.1553 872.675 52.2538 872.815 52.3068C872.955 52.3598 873.111 52.3864 873.281 52.3864C873.41 52.3864 873.527 52.3769 873.634 52.358C873.743 52.339 873.827 52.322 873.884 52.3068L874.23 53.9148C874.12 53.9527 873.963 53.9943 873.759 54.0398C873.558 54.0852 873.312 54.1117 873.02 54.1193C872.505 54.1345 872.041 54.0568 871.628 53.8864C871.215 53.7121 870.887 53.4432 870.645 53.0795C870.406 52.7159 870.289 52.2614 870.293 51.7159V43.1818ZM878.303 54.1761C877.75 54.1761 877.251 54.0777 876.808 53.8807C876.369 53.6799 876.02 53.3845 875.763 52.9943C875.509 52.6042 875.382 52.1231 875.382 51.5511C875.382 51.0587 875.473 50.6515 875.655 50.3295C875.837 50.0076 876.085 49.75 876.399 49.5568C876.714 49.3636 877.068 49.2178 877.462 49.1193C877.859 49.017 878.27 48.9432 878.695 48.8977C879.206 48.8447 879.621 48.7973 879.939 48.7557C880.257 48.7102 880.488 48.642 880.632 48.5511C880.78 48.4564 880.854 48.3106 880.854 48.1136V48.0795C880.854 47.6515 880.727 47.3201 880.473 47.0852C880.219 46.8504 879.854 46.733 879.376 46.733C878.873 46.733 878.473 46.8428 878.178 47.0625C877.886 47.2822 877.689 47.5417 877.587 47.8409L875.666 47.5682C875.818 47.0379 876.068 46.5947 876.416 46.2386C876.765 45.8788 877.191 45.6098 877.695 45.4318C878.198 45.25 878.755 45.1591 879.365 45.1591C879.786 45.1591 880.204 45.2083 880.621 45.3068C881.037 45.4053 881.418 45.5682 881.763 45.7955C882.107 46.0189 882.384 46.3239 882.592 46.7102C882.804 47.0966 882.911 47.5795 882.911 48.1591V54H880.933V52.8011H880.865C880.74 53.0436 880.564 53.2708 880.337 53.483C880.113 53.6913 879.831 53.8598 879.49 53.9886C879.153 54.1136 878.757 54.1761 878.303 54.1761ZM878.837 52.6648C879.25 52.6648 879.607 52.5833 879.911 52.4205C880.214 52.2538 880.446 52.0341 880.609 51.7614C880.776 51.4886 880.859 51.1913 880.859 50.8693V49.8409C880.795 49.8939 880.685 49.9432 880.53 49.9886C880.378 50.0341 880.208 50.0739 880.018 50.108C879.829 50.142 879.642 50.1723 879.456 50.1989C879.27 50.2254 879.109 50.2481 878.973 50.267C878.666 50.3087 878.392 50.3769 878.149 50.4716C877.907 50.5663 877.715 50.6989 877.575 50.8693C877.435 51.036 877.365 51.2519 877.365 51.517C877.365 51.8958 877.503 52.1818 877.78 52.375C878.056 52.5682 878.409 52.6648 878.837 52.6648ZM888.786 54.1705C887.914 54.1705 887.166 53.9792 886.541 53.5966C885.92 53.214 885.441 52.6856 885.104 52.0114C884.77 51.3333 884.604 50.553 884.604 49.6705C884.604 48.7841 884.774 48.0019 885.115 47.3239C885.456 46.642 885.937 46.1117 886.558 45.733C887.183 45.3504 887.922 45.1591 888.774 45.1591C889.482 45.1591 890.109 45.2898 890.655 45.5511C891.204 45.8087 891.642 46.1742 891.967 46.6477C892.293 47.1174 892.479 47.6667 892.524 48.2955H890.558C890.479 47.875 890.289 47.5246 889.99 47.2443C889.695 46.9602 889.299 46.8182 888.803 46.8182C888.382 46.8182 888.013 46.9318 887.695 47.1591C887.376 47.3826 887.128 47.7045 886.95 48.125C886.776 48.5455 886.689 49.0492 886.689 49.6364C886.689 50.2311 886.776 50.7424 886.95 51.1705C887.125 51.5947 887.369 51.9223 887.683 52.1534C888.001 52.3807 888.375 52.4943 888.803 52.4943C889.106 52.4943 889.376 52.4375 889.615 52.3239C889.857 52.2064 890.06 52.0379 890.223 51.8182C890.386 51.5985 890.498 51.3314 890.558 51.017H892.524C892.475 51.6345 892.293 52.1818 891.979 52.6591C891.664 53.1326 891.236 53.5038 890.695 53.7727C890.153 54.0379 889.517 54.1705 888.786 54.1705ZM898.571 45.2727V46.8636H893.554V45.2727H898.571ZM894.793 43.1818H896.849V51.375C896.849 51.6515 896.891 51.8636 896.974 52.0114C897.062 52.1553 897.175 52.2538 897.315 52.3068C897.455 52.3598 897.611 52.3864 897.781 52.3864C897.91 52.3864 898.027 52.3769 898.134 52.358C898.243 52.339 898.327 52.322 898.384 52.3068L898.73 53.9148C898.62 53.9527 898.463 53.9943 898.259 54.0398C898.058 54.0852 897.812 54.1117 897.52 54.1193C897.005 54.1345 896.541 54.0568 896.128 53.8864C895.715 53.7121 895.387 53.4432 895.145 53.0795C894.906 52.7159 894.789 52.2614 894.793 51.7159V43.1818ZM911.686 42.3636H913.794V49.9659C913.794 50.7992 913.597 51.5322 913.203 52.1648C912.813 52.7973 912.264 53.2917 911.555 53.6477C910.847 54 910.019 54.1761 909.072 54.1761C908.122 54.1761 907.292 54 906.584 53.6477C905.875 53.2917 905.326 52.7973 904.936 52.1648C904.546 51.5322 904.351 50.7992 904.351 49.9659V42.3636H906.459V49.7898C906.459 50.2746 906.565 50.7064 906.777 51.0852C906.993 51.464 907.296 51.7614 907.686 51.9773C908.076 52.1894 908.538 52.2955 909.072 52.2955C909.607 52.2955 910.069 52.1894 910.459 51.9773C910.853 51.7614 911.156 51.464 911.368 51.0852C911.58 50.7064 911.686 50.2746 911.686 49.7898V42.3636ZM922.892 47.5795L921.017 47.7841C920.964 47.5947 920.871 47.4167 920.739 47.25C920.61 47.0833 920.436 46.9489 920.216 46.8466C919.996 46.7443 919.727 46.6932 919.409 46.6932C918.981 46.6932 918.621 46.786 918.33 46.9716C918.042 47.1572 917.9 47.3977 917.903 47.6932C917.9 47.947 917.992 48.1534 918.182 48.3125C918.375 48.4716 918.693 48.6023 919.136 48.7045L920.625 49.0227C921.451 49.2008 922.064 49.483 922.466 49.8693C922.871 50.2557 923.076 50.7614 923.08 51.3864C923.076 51.9356 922.915 52.4205 922.597 52.8409C922.282 53.2576 921.845 53.5833 921.284 53.8182C920.723 54.053 920.08 54.1705 919.352 54.1705C918.284 54.1705 917.424 53.947 916.773 53.5C916.121 53.0492 915.733 52.4223 915.608 51.6193L917.614 51.4261C917.705 51.8201 917.898 52.1174 918.193 52.3182C918.489 52.5189 918.873 52.6193 919.347 52.6193C919.835 52.6193 920.227 52.5189 920.523 52.3182C920.822 52.1174 920.972 51.8693 920.972 51.5739C920.972 51.3239 920.875 51.1174 920.682 50.9545C920.492 50.7917 920.197 50.6667 919.795 50.5795L918.307 50.267C917.47 50.0928 916.85 49.7992 916.449 49.3864C916.047 48.9697 915.848 48.4432 915.852 47.8068C915.848 47.2689 915.994 46.803 916.29 46.4091C916.589 46.0114 917.004 45.7045 917.534 45.4886C918.068 45.2689 918.684 45.1591 919.381 45.1591C920.403 45.1591 921.208 45.3769 921.795 45.8125C922.386 46.2481 922.752 46.8371 922.892 47.5795Z" fill="#F9FCFE"/>
</g>
<defs>
<filter id="filter0_d_83_3067" x="0" y="0" width="994" height="128" filterUnits="userSpaceOnUse" color-interpolation-filters="sRGB">
<feFlood flood-opacity="0" result="BackgroundImageFix"/>
<feColorMatrix in="SourceAlpha" type="matrix" values="0 0 0 0 0 0 0 0 0 0 0 0 0 0 0 0 0 0 127 0" result="hardAlpha"/>
<feOffset dy="16"/>
<feGaussianBlur stdDeviation="16"/>
<feColorMatrix type="matrix" values="0 0 0 0 0.176471 0 0 0 0 0.215686 0 0 0 0 0.282353 0 0 0 0.1 0"/>
<feBlend mode="normal" in2="BackgroundImageFix" result="effect1_dropShadow_83_3067"/>
<feBlend mode="normal" in="SourceGraphic" in2="effect1_dropShadow_83_3067" result="shape"/>
</filter>
</defs>
</svg>
